<svg width="24" height="24" viewBox="0 0 24 24" fill="none" xmlns="http://www.w3.org/2000/svg">
    <path fill-rule="evenodd" clip-rule="evenodd" d="M6.49609 6.75C6.49609 4.67893 8.17503 3 10.2461 3H13.2536C15.3246 3 17.0036 4.67893 17.0036 6.75V7.35938H17.75C19.8211 7.35938 21.5 9.03831 21.5 11.1094V12.4577C21.5 12.7475 21.3331 13.0114 21.0712 13.1355L13.3559 16.7917C12.3395 17.2734 11.1605 17.2734 10.1441 16.7917L2.42882 13.1355C2.16695 13.0114 2 12.7475 2 12.4577V11.1094C2 9.03831 3.67893 7.35938 5.75 7.35938H6.49609V6.75ZM15.5036 7.35927V6.75C15.5036 5.50736 14.4962 4.5 13.2536 4.5H10.2461C9.00345 4.5 7.99609 5.50736 7.99609 6.75V7.35927H15.5036ZM5.75 8.85938C4.50736 8.85938 3.5 9.86673 3.5 11.1094V11.9832L10.7865 15.4362C11.3963 15.7252 12.1037 15.7252 12.7135 15.4362L20 11.9832V11.1094C20 9.86673 18.9926 8.85938 17.75 8.85938H5.75ZM11.75 12.75C12.1642 12.75 12.5 13.0858 12.5 13.5V13.5033C12.5 13.9175 12.1642 14.2533 11.75 14.2533C11.3358 14.2533 11 13.9175 11 13.5033V13.5C11 13.0858 11.3358 12.75 11.75 12.75ZM2.75 15.3164C3.16421 15.3164 3.5 15.6522 3.5 16.0664V17.1094C3.5 18.352 4.50736 19.3594 5.75 19.3594H17.75C18.9926 19.3594 20 18.352 20 17.1094V16.0664C20 15.6522 20.3358 15.3164 20.75 15.3164C21.1642 15.3164 21.5 15.6522 21.5 16.0664V17.1094C21.5 19.1804 19.8211 20.8594 17.75 20.8594H5.75C3.67893 20.8594 2 19.1804 2 17.1094V16.0664C2 15.6522 2.33579 15.3164 2.75 15.3164Z" fill="#333333"/>
</svg>

