<svg width="32" height="32" viewBox="0 0 32 32" fill="none" xmlns="http://www.w3.org/2000/svg">
<path fill-rule="evenodd" clip-rule="evenodd" d="M5.77734 12.4467C5.77734 6.80095 10.3543 2.224 16 2.224C21.6457 2.224 26.2227 6.80095 26.2227 12.4467C26.2227 16.6409 23.694 20.2364 20.0887 21.8124C19.414 22.1073 18.6279 21.7994 18.333 21.1247C18.038 20.45 18.3459 19.6639 19.0206 19.369C21.6927 18.2009 23.556 15.5405 23.556 12.4467C23.556 8.27371 20.173 4.89067 16 4.89067C11.8271 4.89067 8.44401 8.27371 8.44401 12.4467C8.44401 15.5408 10.3063 18.2011 12.9781 19.369C13.6528 19.6639 13.9607 20.45 13.6657 21.1247C13.3708 21.7994 12.5847 22.1073 11.91 21.8124C8.30435 20.2363 5.77734 16.6405 5.77734 12.4467ZM18.9308 7.46119C19.4515 7.98189 19.4515 8.82611 18.9308 9.34681L17.2816 10.996H17.988C18.5273 10.996 19.0135 11.3209 19.2199 11.8192C19.4262 12.3175 19.3121 12.891 18.9307 13.2723L14.9547 17.247C14.4339 17.7676 13.5897 17.7674 13.069 17.2466C12.5484 16.7259 12.5486 15.8816 13.0694 15.361L14.7683 13.6627H14.0627C13.5234 13.6627 13.0372 13.3378 12.8308 12.8396C12.6245 12.3413 12.7385 11.7679 13.1199 11.3865L17.0452 7.46119C17.5659 6.94049 18.4101 6.94049 18.9308 7.46119ZM11.1107 24.888C11.1107 24.1516 11.7076 23.5547 12.444 23.5547H19.5547C20.2911 23.5547 20.888 24.1516 20.888 24.888C20.888 25.6244 20.2911 26.2213 19.5547 26.2213H12.444C11.7076 26.2213 11.1107 25.6244 11.1107 24.888ZM12.4173 28.4427C12.4173 27.7063 13.0143 27.1093 13.7507 27.1093H18.2493C18.9857 27.1093 19.5827 27.7063 19.5827 28.4427C19.5827 29.179 18.9857 29.776 18.2493 29.776H13.7507C13.0143 29.776 12.4173 29.179 12.4173 28.4427Z" fill="#FC8507"/>
</svg>
