<svg width="24" height="24" viewBox="0 0 24 24" fill="none" xmlns="http://www.w3.org/2000/svg">
<path fill-rule="evenodd" clip-rule="evenodd" d="M4 3.00098C4.55228 3.00098 5 3.44869 5 4.00098V12.2521L8.65496 8.5978C9.0455 8.20734 9.67861 8.20737 10.0691 8.59787L13.362 11.8908L17.5858 7.66698H14.781C14.2287 7.66698 13.781 7.21926 13.781 6.66698C13.781 6.11469 14.2287 5.66698 14.781 5.66698H20C20.5523 5.66698 21 6.11469 21 6.66698V11.885C21 12.4373 20.5523 12.885 20 12.885C19.4477 12.885 19 12.4373 19 11.885V9.08119L14.0691 14.0121C13.8816 14.1996 13.6272 14.305 13.362 14.305C13.0968 14.305 12.8424 14.1996 12.6549 14.0121L9.36193 10.7191L5 15.0802V17.427C5 18.2947 5.70328 18.998 6.571 18.998H20C20.5523 18.998 21 19.4457 21 19.998C21 20.5503 20.5523 20.998 20 20.998H6.571C4.59872 20.998 3 19.3993 3 17.427V4.00098C3 3.44869 3.44772 3.00098 4 3.00098Z" fill="#000000"/>
</svg>
