<svg width="32" height="32" viewBox="0 0 32 32" fill="none" xmlns="http://www.w3.org/2000/svg">
<path fill-rule="evenodd" clip-rule="evenodd" d="M21.3334 10.3747C20.597 10.3747 20.0001 9.77772 20.0001 9.04134C20.0001 8.30496 20.597 7.70801 21.3334 7.70801H28.2921C29.0285 7.70801 29.6254 8.30496 29.6254 9.04134V16C29.6254 16.7364 29.0285 17.3333 28.2921 17.3333C27.5557 17.3333 26.9588 16.7364 26.9588 16V12.2603L18.8736 20.3455C18.3529 20.8662 17.5086 20.8662 16.9879 20.3455L12.5974 15.955L4.6509 23.9015C4.1302 24.4222 3.28598 24.4222 2.76528 23.9015C2.24458 23.3808 2.24458 22.5366 2.76528 22.0159L11.6546 13.1265C12.1753 12.6058 13.0195 12.6058 13.5402 13.1265L17.9308 17.5171L25.0731 10.3747H21.3334Z" fill="#FC8507"/>
</svg>
