<svg width="24" height="24" viewBox="0 0 24 24" fill="none" xmlns="http://www.w3.org/2000/svg">
<path d="M12 2C17.52 2 22 6.48 22 12C22 17.52 17.52 22 12 22C6.48 22 2 17.52 2 12C2 6.48 6.48 2 12 2ZM12 4C7.584 4 4 7.584 4 12C4 16.416 7.584 20 12 20C16.416 20 20 16.416 20 12C20 7.584 16.416 4 12 4ZM12 17C11.45 17 11 16.55 11 16V12C11 11.45 11.45 11 12 11C12.55 11 13 11.45 13 12V16C13 16.55 12.55 17 12 17ZM12 9C11.448 9 11 8.552 11 8C11 7.448 11.448 7 12 7C12.552 7 13 7.448 13 8C13 8.552 12.552 9 12 9Z" fill="#000000"/>
</svg>
