<svg width="32" height="32" viewBox="0 0 32 32" fill="none" xmlns="http://www.w3.org/2000/svg">
<path d="M11.9999 20C11.7362 20 11.4784 20.0782 11.2592 20.2247C11.0399 20.3712 10.869 20.5794 10.7681 20.823C10.6672 21.0667 10.6408 21.3348 10.6922 21.5934C10.7437 21.8521 10.8706 22.0896 11.0571 22.2761C11.2436 22.4626 11.4812 22.5896 11.7398 22.641C11.9984 22.6925 12.2665 22.666 12.5102 22.5651C12.7538 22.4642 12.962 22.2933 13.1085 22.0741C13.2551 21.8548 13.3333 21.597 13.3333 21.3333C13.3333 20.9797 13.1928 20.6405 12.9427 20.3905C12.6927 20.1404 12.3535 20 11.9999 20ZM2.66659 18.6666C2.31296 18.6666 1.97382 18.8071 1.72378 19.0572C1.47373 19.3072 1.33325 19.6463 1.33325 20V22.6666C1.33325 23.0202 1.47373 23.3594 1.72378 23.6094C1.97382 23.8595 2.31296 24 2.66659 24C3.02021 24 3.35935 23.8595 3.60939 23.6094C3.85944 23.3594 3.99992 23.0202 3.99992 22.6666V20C3.99992 19.6463 3.85944 19.3072 3.60939 19.0572C3.35935 18.8071 3.02021 18.6666 2.66659 18.6666ZM29.3333 18.6666C28.9796 18.6666 28.6405 18.8071 28.3904 19.0572C28.1404 19.3072 27.9999 19.6463 27.9999 20V22.6666C27.9999 23.0202 28.1404 23.3594 28.3904 23.6094C28.6405 23.8595 28.9796 24 29.3333 24C29.6869 24 30.026 23.8595 30.2761 23.6094C30.5261 23.3594 30.6666 23.0202 30.6666 22.6666V20C30.6666 19.6463 30.5261 19.3072 30.2761 19.0572C30.026 18.8071 29.6869 18.6666 29.3333 18.6666ZM22.6666 9.33329H17.3333V7.62663C17.7363 7.39395 18.0714 7.05984 18.3053 6.65752C18.5392 6.2552 18.6638 5.79866 18.6666 5.33329C18.6666 4.62605 18.3856 3.94777 17.8855 3.44767C17.3854 2.94758 16.7072 2.66663 15.9999 2.66663C15.2927 2.66663 14.6144 2.94758 14.1143 3.44767C13.6142 3.94777 13.3333 4.62605 13.3333 5.33329C13.3361 5.79866 13.4606 6.2552 13.6945 6.65752C13.9284 7.05984 14.2635 7.39395 14.6666 7.62663V9.33329H9.33325C8.27239 9.33329 7.25497 9.75472 6.50482 10.5049C5.75468 11.255 5.33325 12.2724 5.33325 13.3333V25.3333C5.33325 26.3942 5.75468 27.4116 6.50482 28.1617C7.25497 28.9119 8.27239 29.3333 9.33325 29.3333H22.6666C23.7274 29.3333 24.7449 28.9119 25.495 28.1617C26.2452 27.4116 26.6666 26.3942 26.6666 25.3333V13.3333C26.6666 12.2724 26.2452 11.255 25.495 10.5049C24.7449 9.75472 23.7274 9.33329 22.6666 9.33329ZM18.2933 12L17.6266 14.6666H14.3733L13.7066 12H18.2933ZM23.9999 25.3333C23.9999 25.6869 23.8594 26.0261 23.6094 26.2761C23.3593 26.5262 23.0202 26.6666 22.6666 26.6666H9.33325C8.97963 26.6666 8.64049 26.5262 8.39044 26.2761C8.14039 26.0261 7.99992 25.6869 7.99992 25.3333V13.3333C7.99992 12.9797 8.14039 12.6405 8.39044 12.3905C8.64049 12.1404 8.97963 12 9.33325 12H10.9599L11.9999 16.32C12.0729 16.6158 12.245 16.8777 12.4876 17.0621C12.7302 17.2464 13.0287 17.3422 13.3333 17.3333H18.6666C18.9712 17.3422 19.2696 17.2464 19.5122 17.0621C19.7548 16.8777 19.9269 16.6158 19.9999 16.32L21.0399 12H22.6666C23.0202 12 23.3593 12.1404 23.6094 12.3905C23.8594 12.6405 23.9999 12.9797 23.9999 13.3333V25.3333ZM19.9999 20C19.7362 20 19.4784 20.0782 19.2592 20.2247C19.0399 20.3712 18.869 20.5794 18.7681 20.823C18.6672 21.0667 18.6408 21.3348 18.6922 21.5934C18.7437 21.8521 18.8706 22.0896 19.0571 22.2761C19.2436 22.4626 19.4812 22.5896 19.7398 22.641C19.9984 22.6925 20.2665 22.666 20.5102 22.5651C20.7538 22.4642 20.962 22.2933 21.1085 22.0741C21.2551 21.8548 21.3333 21.597 21.3333 21.3333C21.3333 20.9797 21.1928 20.6405 20.9427 20.3905C20.6927 20.1404 20.3535 20 19.9999 20Z" fill="#FC8507"/>
</svg>
