<svg width="32" height="32" viewBox="0 0 32 32" fill="none" xmlns="http://www.w3.org/2000/svg">
<path fill-rule="evenodd" clip-rule="evenodd" d="M23.89 2.58181C24.4107 2.06111 25.255 2.06111 25.7757 2.58181L29.363 6.16916C29.8837 6.68986 29.8837 7.53408 29.363 8.05478L25.7757 11.6421C25.255 12.1628 24.4107 12.1628 23.89 11.6421L20.3027 8.05478C19.782 7.53408 19.782 6.68986 20.3027 6.16916L23.89 2.58181ZM23.1311 7.11197L24.8328 8.81371L26.5346 7.11197L24.8328 5.41024L23.1311 7.11197ZM12.4959 5.53196C12.9833 5.53192 13.4319 5.79787 13.6658 6.22553C15.6194 9.79779 18.5581 12.7365 22.1304 14.6901C22.558 14.924 22.824 15.3726 22.824 15.86C22.824 16.3474 22.558 16.7959 22.1304 17.0298C18.5581 18.9834 15.6194 21.9221 13.6658 25.4944C13.4319 25.922 12.9834 26.188 12.496 26.188C12.0086 26.188 11.56 25.922 11.3261 25.4944C9.37251 21.9221 6.4338 18.9834 2.86154 17.0298C2.43388 16.7959 2.16793 16.3473 2.16797 15.8599C2.168 15.3724 2.43402 14.9239 2.86171 14.69C6.43517 12.7364 9.37245 9.79916 11.3261 6.2257C11.5599 5.79801 12.0084 5.532 12.4959 5.53196ZM12.4962 9.42459C10.7822 11.9614 8.59743 14.1462 6.0606 15.8602C8.5968 17.5743 10.7819 19.7594 12.496 22.2956C14.2101 19.7593 16.3953 17.5741 18.9316 15.86C16.3954 14.1459 14.2103 11.9608 12.4962 9.42459ZM24.832 20.872C25.5683 20.872 26.1653 21.4689 26.1653 22.2053V23.5213H27.4813C28.2177 23.5213 28.8146 24.1182 28.8146 24.8546C28.8146 25.591 28.2177 26.188 27.4813 26.188H26.1653V27.5053C26.1653 28.2417 25.5683 28.8386 24.832 28.8386C24.0956 28.8386 23.4986 28.2417 23.4986 27.5053V26.188H22.1813C21.4449 26.188 20.848 25.591 20.848 24.8546C20.848 24.1182 21.4449 23.5213 22.1813 23.5213H23.4986V22.2053C23.4986 21.4689 24.0956 20.872 24.832 20.872Z" fill="#FC8507"/>
</svg>
