<svg width="20" height="21" viewBox="0 0 20 21" fill="none" xmlns="http://www.w3.org/2000/svg">
<g id="Icon">
<path id="Vector" d="M6.30859 4.45978C5.60547 4.45978 4.94792 4.58999 4.33594 4.8504C3.72396 5.12384 3.1901 5.48842 2.73438 5.94415C2.27865 6.39988 1.91406 6.93374 1.64062 7.54572C1.38021 8.15769 1.25 8.81525 1.25 9.51837C1.25 10.2215 1.38021 10.879 1.64062 11.491C1.91406 12.103 2.27865 12.6401 2.73438 13.1024C3.1901 13.5646 3.72396 13.9259 4.33594 14.1863C4.94792 14.4468 5.60547 14.577 6.30859 14.577C7.01172 14.577 7.66927 14.4468 8.28125 14.1863C8.89323 13.9259 9.43034 13.5646 9.89258 13.1024C10.3548 12.6401 10.7161 12.103 10.9766 11.491C11.237 10.879 11.3672 10.2215 11.3672 9.51837C11.3672 8.81525 11.237 8.15769 10.9766 7.54572C10.7161 6.93374 10.3548 6.39988 9.89258 5.94415C9.43034 5.48842 8.89323 5.12384 8.28125 4.8504C7.66927 4.58999 7.01172 4.45978 6.30859 4.45978ZM0 9.51837C0 8.64598 0.16276 7.82566 0.488281 7.05743C0.826823 6.2892 1.2793 5.62189 1.8457 5.05548C2.41211 4.48907 3.07943 4.0366 3.84766 3.69806C4.61589 3.37254 5.4362 3.20978 6.30859 3.20978C7.18099 3.20978 8.0013 3.37254 8.76953 3.69806C9.53776 4.0366 10.2083 4.48907 10.7812 5.05548C11.3542 5.62189 11.8034 6.2892 12.1289 7.05743C12.4544 7.82566 12.6172 8.64598 12.6172 9.51837C12.6172 10.2736 12.4935 10.993 12.2461 11.6766C11.9987 12.3602 11.6471 12.9754 11.1914 13.5223L14.668 16.9988C14.7852 17.116 14.8438 17.2593 14.8438 17.4285C14.8438 17.5978 14.7852 17.7475 14.668 17.8777C14.5378 17.9949 14.388 18.0535 14.2188 18.0535C14.0495 18.0535 13.9062 17.9949 13.7891 17.8777L10.3125 14.4012C9.76562 14.8569 9.15039 15.2085 8.4668 15.4559C7.7832 15.7033 7.0638 15.827 6.30859 15.827C5.4362 15.827 4.61589 15.6642 3.84766 15.3387C3.07943 15.0132 2.41211 14.5639 1.8457 13.991C1.2793 13.4181 0.826823 12.7475 0.488281 11.9793C0.16276 11.2111 0 10.3908 0 9.51837Z" fill="#AFAFAF"/>
</g>
</svg>
